<svg width="20" height="23" viewBox="0 0 20 23" fill="none" xmlns="http://www.w3.org/2000/svg">
<path d="M13.375 17.3333V18.5C13.375 19.4283 13.0194 20.3185 12.3865 20.9749C11.7536 21.6312 10.8951 22 10 22C9.10489 22 8.24645 21.6312 7.61351 20.9749C6.98058 20.3185 6.625 19.4283 6.625 18.5V17.3333M13.375 17.3333H6.625M13.375 17.3333H17.4137C17.8446 17.3333 18.0606 17.3333 18.235 17.2727C18.399 17.2151 18.548 17.119 18.6703 16.9919C18.7927 16.8648 18.8851 16.7102 18.9404 16.54C19 16.358 19 16.134 19 15.6837C19 15.4865 19 15.3885 18.9842 15.294C18.9566 15.1173 18.89 14.9496 18.7896 14.804C18.7356 14.7258 18.6681 14.6558 18.5343 14.517L18.0955 14.062C18.0255 13.9894 17.97 13.9031 17.9322 13.8082C17.8944 13.7134 17.8749 13.6117 17.875 13.509V9.16667C17.875 8.0942 17.6713 7.03224 17.2756 6.04142C16.8798 5.05059 16.2997 4.15031 15.5685 3.39196C14.8372 2.63362 13.9691 2.03206 13.0136 1.62165C12.0582 1.21124 11.0342 1 10 1C8.96584 1 7.94181 1.21124 6.98637 1.62165C6.03093 2.03206 5.1628 2.63362 4.43153 3.39196C3.70027 4.15031 3.1202 5.05059 2.72445 6.04142C2.32869 7.03224 2.125 8.0942 2.125 9.16667V13.509C2.12507 13.6117 2.10563 13.7134 2.0678 13.8082C2.02997 13.9031 1.97448 13.9894 1.9045 14.062L1.46575 14.517C1.33075 14.657 1.26438 14.7258 1.2115 14.8028C1.11028 14.9487 1.0429 15.1167 1.01463 15.294C1 15.3873 1 15.4865 1 15.6837C1 16.134 1 16.358 1.0585 16.54C1.114 16.7104 1.20675 16.8652 1.3295 16.9923C1.45226 17.1194 1.60169 17.2154 1.76613 17.2727C1.9405 17.3333 2.15537 17.3333 2.58625 17.3333H6.625" stroke="black" stroke-width="2" stroke-linecap="round" stroke-linejoin="round"/>
</svg>
