<svg width="24" height="24" viewBox="0 0 24 24" fill="none" xmlns="http://www.w3.org/2000/svg">
<path d="M4.51245 5.68335H20.6583C20.9855 5.68336 21.309 5.75193 21.6081 5.88462C21.9071 6.01732 22.175 6.2112 22.3945 6.45378C22.614 6.69635 22.7803 6.98223 22.8826 7.29299C22.9848 7.60375 23.0209 7.9325 22.9883 8.25803L22.2858 15.2831C22.228 15.8609 21.9576 16.3966 21.5271 16.7863C21.0965 17.1759 20.5365 17.3917 19.9558 17.3918H8.77431C8.23276 17.392 7.70788 17.2045 7.28903 16.8612C6.87019 16.5179 6.58326 16.0401 6.47712 15.509L4.51245 5.68335Z" stroke="black" stroke-width="2" stroke-linejoin="round"/>
<path d="M4.51252 5.68336L3.56414 1.88633C3.50071 1.63314 3.3545 1.4084 3.14874 1.24781C2.94297 1.08723 2.68944 1.00001 2.42843 1H1M8.02504 22.0751H10.3667M17.3918 22.0751H19.7334" stroke="black" stroke-width="2" stroke-linecap="round" stroke-linejoin="round"/>
</svg>
