<svg width="13" height="19" viewBox="0 0 13 19" fill="none" xmlns="http://www.w3.org/2000/svg">
<path d="M3.8076 16.4275H9.0321L9.7559 17.6839L8.63644 17.9908L6.67098 18.8857L4.46097 17.9908L3.30955 17.8236L3.08496 17.377L3.8076 16.4275Z" fill="#F68624"/>
<path d="M6.47949 18.9865C4.62901 18.9865 2.63696 18.4913 2.63696 17.4043C2.63696 16.7841 3.29209 16.2949 4.4821 16.0265C4.59969 16 4.72301 16.0212 4.82493 16.0856C4.92685 16.15 4.99904 16.2522 5.02559 16.3698C5.05214 16.4874 5.03088 16.6107 4.96651 16.7126C4.90214 16.8146 4.79991 16.8867 4.68232 16.9133C4.26256 16.9583 3.86689 17.1317 3.54918 17.4097C3.67475 17.6176 4.65744 18.0867 6.48126 18.0867C8.30508 18.0867 9.28779 17.6182 9.41337 17.4097C9.09549 17.1316 8.69959 16.9582 8.27962 16.9133C8.16541 16.8842 8.06706 16.8117 8.00548 16.7112C7.94391 16.6107 7.92395 16.4902 7.94988 16.3752C7.97581 16.2602 8.04557 16.1599 8.14432 16.0956C8.24306 16.0312 8.36301 16.008 8.47865 16.0307C9.66866 16.299 10.3238 16.7883 10.3238 17.4085C10.3238 18.4954 8.33235 18.9906 6.48068 18.9906" fill="black"/>
<path d="M6.48023 17.4812C6.41693 17.4812 6.35434 17.4679 6.2965 17.4422C6.23865 17.4165 6.18683 17.3789 6.14438 17.3319C3.10625 13.9597 0 10.0343 0 6.48023C0 4.76157 0.682738 3.11329 1.89802 1.89802C3.1133 0.682737 4.76157 0 6.48023 0C8.19889 0 9.84717 0.682737 11.0624 1.89802C12.2777 3.11329 12.9605 4.76157 12.9605 6.48023C12.9605 10.0343 9.85423 13.9603 6.8161 17.3319C6.7736 17.3789 6.72176 17.4164 6.66393 17.4421C6.60609 17.4678 6.54352 17.4811 6.48023 17.4812ZM6.48023 0.904508C5.00194 0.906076 3.58466 1.49402 2.53935 2.53933C1.49404 3.58464 0.90608 5.00194 0.904512 6.48023C0.904512 9.61432 3.81291 13.3556 6.48023 16.3516C9.14577 13.3556 12.056 9.61491 12.056 6.48023C12.0542 5.00199 11.4662 3.58478 10.421 2.5395C9.37569 1.49423 7.95848 0.906232 6.48023 0.904508Z" fill="black"/>
<path d="M6.47959 10.3232C5.71947 10.3232 4.97642 10.0978 4.34441 9.67548C3.7124 9.25317 3.21981 8.65292 2.92895 7.95064C2.63809 7.24837 2.56203 6.47562 2.71037 5.73011C2.8587 4.9846 3.22478 4.29983 3.76231 3.76238C4.29984 3.22493 4.98467 2.85896 5.7302 2.71074C6.47573 2.56252 7.24848 2.63871 7.95071 2.92968C8.65293 3.22064 9.25309 3.71332 9.67531 4.34539C10.0975 4.97747 10.3228 5.72055 10.3227 6.48068C10.3215 7.4995 9.91615 8.47622 9.19568 9.19658C8.47521 9.91694 7.49841 10.3221 6.47959 10.3232ZM6.47959 3.54147C5.89852 3.54206 5.33066 3.7149 4.84779 4.03816C4.36493 4.36141 3.98874 4.82056 3.76678 5.35758C3.54482 5.89459 3.48704 6.48535 3.60076 7.05519C3.71448 7.62503 3.9946 8.14837 4.40569 8.55904C4.81678 8.96972 5.3404 9.2493 5.91035 9.36245C6.48031 9.47559 7.07102 9.41723 7.60781 9.19472C8.14459 8.97222 8.60336 8.59557 8.92613 8.11238C9.2489 7.62919 9.42117 7.06116 9.42117 6.48009C9.42023 5.70101 9.11032 4.9541 8.55943 4.40321C8.00853 3.85232 7.26164 3.54241 6.48256 3.54147" fill="black"/>
<path d="M6.33978 17.1547C2.08084 12.4278 0.262939 9.23512 0.262939 6.48251C0.262939 4.83375 0.917905 3.25253 2.08375 2.08668C3.2496 0.920834 4.83082 0.265869 6.47958 0.265869C8.12833 0.265869 9.70956 0.920834 10.8754 2.08668C12.0412 3.25253 12.6962 4.83375 12.6962 6.48251C12.6962 9.23808 10.8789 12.4308 6.61996 17.1577C6.60225 17.1773 6.58063 17.1929 6.5565 17.2036C6.53237 17.2143 6.50627 17.2199 6.47987 17.2199C6.45348 17.2199 6.42737 17.2143 6.40324 17.2036C6.37912 17.1929 6.3575 17.1773 6.33978 17.1577V17.1547ZM0.639669 6.48251C0.639669 9.10658 2.38886 12.1838 6.47958 16.7496C10.5703 12.1844 12.3189 9.10836 12.3189 6.48251C12.3267 5.71069 12.1814 4.94499 11.8914 4.22967C11.6014 3.51436 11.1725 2.86363 10.6295 2.3151C10.0864 1.76657 9.44005 1.33114 8.72769 1.03397C8.01534 0.736794 7.25114 0.583785 6.47928 0.583785C5.70742 0.583785 4.94322 0.736794 4.23087 1.03397C3.51851 1.33114 2.87213 1.76657 2.3291 2.3151C1.78607 2.86363 1.35716 3.51436 1.06718 4.22967C0.777201 4.94499 0.631896 5.71069 0.639669 6.48251ZM2.90005 6.48251C2.89946 5.77468 3.10878 5.08258 3.50152 4.49372C3.89427 3.90485 4.45281 3.44567 5.10651 3.17423C5.76022 2.90279 6.47973 2.83129 7.17408 2.96876C7.86842 3.10623 8.50641 3.4465 9.00737 3.94655C9.50833 4.4466 9.84976 5.08397 9.9885 5.77806C10.1272 6.47215 10.057 7.1918 9.78679 7.846C9.51654 8.5002 9.05837 9.05957 8.47023 9.45339C7.88208 9.8472 7.19036 10.0578 6.48254 10.0585C5.53311 10.0582 4.62261 9.68111 3.95094 9.0101C3.27926 8.33909 2.9013 7.42897 2.90005 6.47954V6.48251ZM3.27678 6.48251C3.27748 7.11554 3.4658 7.73416 3.81793 8.26022C4.17006 8.78627 4.67021 9.19615 5.25519 9.43808C5.84017 9.68001 6.48374 9.74312 7.10457 9.61945C7.72541 9.49578 8.29566 9.19087 8.74328 8.74325C9.1909 8.29563 9.49581 7.72538 9.61948 7.10454C9.74315 6.4837 9.68004 5.84014 9.43811 5.25516C9.19619 4.67018 8.7863 4.17003 8.26025 3.8179C7.73419 3.46576 7.11557 3.27745 6.48254 3.27675C5.63293 3.2769 4.81814 3.61431 4.21715 4.21485C3.61617 4.81539 3.27816 5.62994 3.27737 6.47954L3.27678 6.48251Z" fill="black"/>
</svg>
